<?xml version="1.0" encoding="UTF-8"?>
<svg id="Layer_1" data-name="Layer 1" xmlns="http://www.w3.org/2000/svg" viewBox="0 0 267.56 251.1">
  <defs>
    <style>
      .cls-1, .cls-2, .cls-3, .cls-4, .cls-5, .cls-6, .cls-7 {
        fill: #fff;
      }

      .cls-2 {
        stroke-miterlimit: 10;
        stroke-width: 1px;
      }

      .cls-2, .cls-3, .cls-4, .cls-8, .cls-9, .cls-6, .cls-10, .cls-11, .cls-12, .cls-7, .cls-13, .cls-14, .cls-15 {
        stroke: #231f20;
      }

      .cls-3, .cls-5, .cls-9, .cls-6, .cls-10, .cls-16, .cls-11, .cls-17, .cls-12, .cls-18, .cls-7, .cls-13, .cls-19, .cls-15 {
        stroke-miterlimit: 10;
      }

      .cls-3, .cls-5, .cls-9, .cls-15 {
        stroke-width: .5px;
      }

      .cls-4, .cls-8, .cls-14 {
        stroke-miterlimit: 10;
      }

      .cls-4, .cls-14 {
        stroke-width: .5px;
      }

      .cls-5, .cls-16, .cls-17, .cls-18, .cls-19 {
        stroke: #fff;
      }

      .cls-8 {
        stroke-width: 1px;
      }

      .cls-8, .cls-11 {
        fill: #22ace3;
      }

      .cls-9 {
        fill: #77cedc;
      }

      .cls-10, .cls-16, .cls-13, .cls-19 {
        fill: #279ed9;
      }

      .cls-17, .cls-12 {
        fill: #231f20;
      }

      .cls-18, .cls-14, .cls-15 {
        fill: none;
      }

      .cls-7, .cls-13, .cls-19 {
        stroke-width: .75px;
      }
    </style>
  </defs>
  <g>
    <ellipse class="cls-8" cx="110.78" cy="36.33" rx="6.99" ry="5.28" transform="translate(72.31 146.39) rotate(-88.89)"/>
    <ellipse class="cls-8" cx="127.02" cy="15.22" rx="6.99" ry="5.28" transform="translate(109.34 141.92) rotate(-88.89)"/>
    <ellipse class="cls-8" cx="131.69" cy="36.11" rx="6.99" ry="5.28" transform="translate(93.03 167.07) rotate(-88.89)"/>
    <polyline class="cls-11" points="78.59 6.82 109.38 22.9 124.5 .71 147.29 17.45 160.89 6.39 182.25 20.61 208.53 7.21 189.66 52.53 99.32 50.77 78.59 6.82"/>
    <ellipse class="cls-8" cx="148.7" cy="38.54" rx="3.81" ry="2.87" transform="translate(107.28 186.46) rotate(-88.89)"/>
    <ellipse class="cls-8" cx="127.02" cy="15.22" rx="3.81" ry="2.87" transform="translate(109.34 141.92) rotate(-88.89)"/>
    <ellipse class="cls-8" cx="131.69" cy="36.11" rx="3.81" ry="2.87" transform="translate(93.03 167.07) rotate(-88.89)"/>
    <ellipse class="cls-8" cx="110.78" cy="36.33" rx="3.81" ry="2.87" transform="translate(72.31 146.39) rotate(-88.89)"/>
    <ellipse class="cls-8" cx="163.09" cy="17.2" rx="3.81" ry="2.87" transform="translate(142.73 179.92) rotate(-88.89)"/>
    <ellipse class="cls-8" cx="91.96" cy="19.62" rx="3.81" ry="2.87" transform="translate(70.56 111.18) rotate(-88.89)"/>
    <ellipse class="cls-8" cx="188.36" cy="25.3" rx="6.99" ry="5.28" transform="translate(159.41 213.13) rotate(-88.89)"/>
    <ellipse class="cls-8" cx="188.36" cy="25.3" rx="3.81" ry="2.87" transform="translate(159.41 213.13) rotate(-88.89)"/>
    <ellipse class="cls-8" cx="151.85" cy="24.6" rx="6.99" ry="5.28" transform="translate(124.31 175.94) rotate(-88.89)"/>
    <ellipse class="cls-8" cx="151.85" cy="24.6" rx="3.81" ry="2.87" transform="translate(124.31 175.94) rotate(-88.89)"/>
    <ellipse class="cls-8" cx="176.2" cy="41.4" rx="6.99" ry="5.28" transform="translate(131.39 216.76) rotate(-88.89)"/>
    <ellipse class="cls-8" cx="176.2" cy="41.4" rx="3.81" ry="2.87" transform="translate(131.39 216.76) rotate(-88.89)"/>
    <ellipse class="cls-8" cx="163.71" cy="40.53" rx="3.81" ry="2.87" transform="translate(120.01 203.42) rotate(-88.89)"/>
  </g>
  <path class="cls-12" d="M97.69,125.81l85.7,1.66,1.37-70.38c-.07,0-15.59-.3-24.96-.48-4.06-.08-6.97-.14-6.97-.14-.03,0-15.41-.3-15.44-.3-.22,0-40.24-.78-40.45-.79-.16,8.06-.31,16.12-.47,24.18l-15.19,14.22,15.32,6.21,1.1,25.82h-.01Z"/>
  <ellipse class="cls-4" cx="164.63" cy="110.35" rx="13.36" ry="8.51" transform="translate(51.11 272.82) rotate(-88.89)"/>
  <ellipse class="cls-14" cx="164.63" cy="110.35" rx="9.25" ry="5.89" transform="translate(51.11 272.82) rotate(-88.89)"/>
  <ellipse class="cls-14" cx="164.63" cy="110.35" rx="5.2" ry="3.31" transform="translate(51.11 272.82) rotate(-88.89)"/>
  <path class="cls-1" d="M141.32,56.25s5.5,3.33,4.6,14.06-5.81,15.47-2.82,21.18c2.99,5.7,5.51,10.44,4.4,18.56-1.12,8.11-1.89,13.33-1.89,13.33"/>
  <polyline class="cls-3" points="152.82 56.47 150.36 83.3 155.15 100.94 154.87 115.39"/>
  <polyline class="cls-1" points="155.84 65.67 161.98 77.07 164.9 97.02"/>
  <polyline class="cls-5" points="166.62 56.74 171.52 74.57 170.89 92.03 171 101.33"/>
  <polyline class="cls-1" points="179.44 56.99 178.65 97.29 172.89 123.9"/>
  <polyline class="cls-6" points="137.38 56.17 135.11 91.33 158.33 123.62"/>
  <path class="cls-10" d="M267.06,250.59l-9.25-14.19c-9.25-14.19,.95-40.29,.95-40.29l-52.54-52.84-132.54-3.12-7.56,10.22-30.95,41.82-1.33,56.68,233.22,1.73h0Z"/>
  <path class="cls-10" d="M61.68,151.69s41.38,21.22,31.76,45.18-24.67,52.17-24.67,52.17"/>
  <line class="cls-18" x1="41.78" y1="183.25" x2="40.31" y2="245.79"/>
  <line class="cls-18" x1="52.22" y1="169.2" x2="50.41" y2="246.03"/>
  <line class="cls-18" x1="61.5" y1="159.75" x2="59.4" y2="248.82"/>
  <line class="cls-18" x1="71.35" y1="157.35" x2="69.3" y2="244.32"/>
  <line class="cls-18" x1="80.01" y1="165.02" x2="78.61" y2="224.65"/>
  <path class="cls-10" d="M65.98,156.08s51.06,6.93,55.71,1.31l4.65-5.61s-14.05,47.66-.34,72.69c13.7,25.02,41.69,22.18,41.69,22.18"/>
  <path class="cls-16" d="M146.18,146.15s-30.09,63.8,1.28,80.12c31.38,16.33,50.49,18.93,50.49,18.93"/>
  <path class="cls-16" d="M159.41,142.16s-27.62,44.65-2.53,62.68c25.08,18.03,70.82,43.21,70.82,43.21"/>
  <path class="cls-16" d="M170.32,146.72s-25.24,40.15,3.63,56.2,70.3,43.37,70.3,43.37"/>
  <path class="cls-16" d="M183.22,147.03s-22.53,29.57,6.81,50.15,69.67,49.48,69.67,49.48"/>
  <path class="cls-16" d="M194.98,147.3s-20.92,31.32-.67,39.54c20.26,8.22,57.35,38.66,57.35,38.66"/>
  <path class="cls-16" d="M200.25,147.43s-9.53,20.2-.68,29.01,52.41,35.91,52.41,35.91"/>
  <path class="cls-17" d="M207.17,147.59s-9,20.51,2.63,24.14,42.42,30.68,42.42,30.68"/>
  <path class="cls-6" d="M85.86,170s10,8.57,17.66,7,18.34-6.15,18.34-6.15"/>
  <ellipse class="cls-2" cx="100.99" cy="151.19" rx="1.21" ry="1.2" transform="translate(-52.54 248.59) rotate(-88.65)"/>
  <ellipse class="cls-2" cx="118.05" cy="149.58" rx="2.02" ry="2" transform="translate(-34.26 264.07) rotate(-88.65)"/>
  <ellipse class="cls-2" cx="86.47" cy="144.76" rx="2.02" ry="2" transform="translate(-60.28 227.79) rotate(-88.65)"/>
  <ellipse class="cls-2" cx="76.77" cy="150.62" rx="2.02" ry="2" transform="translate(-75.62 223.82) rotate(-88.65)"/>
  <path class="cls-7" d="M102.88,184.69s-7.19,2.19-4.98,4.99c2.2,2.8,6.07,3.87,6.07,3.87,0,0,4.68,1.09,5.33-2.23,.64-3.32-5.89-2.13-5.89-2.13"/>
  <path class="cls-13" d="M117.37,227.3s2.15-3.96-.08-6.71c-2.23-2.75-4.41-3.19-4.41-3.19,0,0-2.54-.29-1.32,3.63,1.23,3.92,3.54,1.24,3.54,1.24"/>
  <path class="cls-13" d="M102.78,199s-5.9,3.17-4.12,7.04,4.94,5.3,4.94,5.3c0,0,3.82,1.44,4.38-3.2,.55-4.65-4.81-2.88-4.81-2.88"/>
  <path class="cls-7" d="M112.57,177.21s-4.36,2.49-3.06,5.54c1.3,3.06,3.61,4.19,3.61,4.19,0,0,2.81,1.15,3.23-2.52,.43-3.66-3.52-2.28-3.52-2.28"/>
  <path class="cls-13" d="M94.4,216.34s-5.4,2.84-3.77,6.3c1.63,3.47,4.53,4.75,4.53,4.75,0,0,3.5,1.29,4.01-2.87,.5-4.16-4.4-2.58-4.4-2.58"/>
  <path class="cls-13" d="M125.93,238.31s-5.15,2.36-3.58,5.25c1.57,2.9,4.33,3.97,4.33,3.97,0,0,3.35,1.09,3.82-2.38,.47-3.47-4.21-2.16-4.21-2.16"/>
  <path class="cls-13" d="M107.93,224.2s-5.4,2.84-3.77,6.3c1.63,3.47,4.53,4.75,4.53,4.75,0,0,3.5,1.29,4.01-2.87,.5-4.16-4.4-2.58-4.4-2.58"/>
  <path class="cls-19" d="M84.26,246.65s6.61,.22,5.65-2.87c-.96-3.09-3.83-5.16-3.83-5.16,0,0-3.53-2.33-5.09,.37-1.55,2.7,4.22,3.59,4.22,3.59"/>
  <g>
    <polyline class="cls-9" points="24.13 170.55 23.7 188.53 38.87 199.94 38.53 214.59 .25 213.68 .84 168.82"/>
    <line class="cls-15" x1="14.61" y1="193.9" x2="15.2" y2="169.15"/>
    <line class="cls-15" x1="6.1" y1="168.94" x2="5.51" y2="193.69"/>
    <line class="cls-15" x1="10.71" y1="169.05" x2="10.12" y2="193.8"/>
    <line class="cls-15" x1="20.66" y1="169.28" x2="20.13" y2="191.67"/>
  </g>
</svg>