<?xml version="1.0" encoding="UTF-8"?>
<svg xmlns="http://www.w3.org/2000/svg" viewBox="0 0 343 317">
  <defs>
    <style>
      .cls-1, .cls-2, .cls-3, .cls-4, .cls-5, .cls-6, .cls-7, .cls-8 {
        fill: #fff;
      }

      .cls-2 {
        stroke-miterlimit: 10;
        stroke-width: 1px;
      }

      .cls-2, .cls-3, .cls-4, .cls-9, .cls-10, .cls-6, .cls-11, .cls-12, .cls-13, .cls-7, .cls-14, .cls-15, .cls-16 {
        stroke: #231f20;
      }

      .cls-3, .cls-5, .cls-10, .cls-6, .cls-11, .cls-17, .cls-12, .cls-18, .cls-13, .cls-19, .cls-7, .cls-14, .cls-20, .cls-16, .cls-8 {
        stroke-miterlimit: 10;
      }

      .cls-3, .cls-5, .cls-10, .cls-16 {
        stroke-width: .5px;
      }

      .cls-4, .cls-9, .cls-15 {
        stroke-miterlimit: 10;
      }

      .cls-4, .cls-15 {
        stroke-width: .5px;
      }

      .cls-5, .cls-17, .cls-18, .cls-19, .cls-20 {
        stroke: #fff;
      }

      .cls-9 {
        stroke-width: 1px;
      }

      .cls-9, .cls-12 {
        fill: #22ace3;
      }

      .cls-10 {
        fill: #77cedc;
      }

      .cls-11, .cls-17, .cls-14, .cls-20 {
        fill: #279ed9;
      }

      .cls-18, .cls-13 {
        fill: #231f20;
      }

      .cls-19, .cls-15, .cls-16 {
        fill: none;
      }

      .cls-21 {
        opacity: .9;
      }

      .cls-7, .cls-14, .cls-20 {
        stroke-width: .75px;
      }

      .cls-8 {
        opacity: .61;
        stroke: #000;
      }
    </style>
  </defs>
  <g id="Layer_1" data-name="Layer 1">
    <ellipse class="cls-8" cx="171.5" cy="158.5" rx="171" ry="158"/>
  </g>
  <g id="Layer_2" data-name="Layer 2">
    <g class="cls-21">
      <g>
        <ellipse class="cls-9" cx="138.98" cy="42.06" rx="6.99" ry="5.28" transform="translate(94.24 180.2) rotate(-88.89)"/>
        <ellipse class="cls-9" cx="155.22" cy="20.95" rx="6.99" ry="5.28" transform="translate(131.26 175.73) rotate(-88.89)"/>
        <ellipse class="cls-9" cx="159.88" cy="41.84" rx="6.99" ry="5.28" transform="translate(114.96 200.88) rotate(-88.89)"/>
        <polyline class="cls-12" points="106.79 12.55 137.58 28.63 152.7 6.44 175.49 23.18 189.09 12.12 210.45 26.34 236.73 12.94 217.86 58.26 127.52 56.5 106.79 12.55"/>
        <ellipse class="cls-9" cx="176.89" cy="44.27" rx="3.81" ry="2.87" transform="translate(129.21 220.27) rotate(-88.89)"/>
        <ellipse class="cls-9" cx="155.22" cy="20.95" rx="3.81" ry="2.87" transform="translate(131.26 175.73) rotate(-88.89)"/>
        <ellipse class="cls-9" cx="159.88" cy="41.84" rx="3.81" ry="2.87" transform="translate(114.96 200.88) rotate(-88.89)"/>
        <ellipse class="cls-9" cx="138.98" cy="42.06" rx="3.81" ry="2.87" transform="translate(94.24 180.2) rotate(-88.89)"/>
        <ellipse class="cls-9" cx="191.29" cy="22.93" rx="3.81" ry="2.87" transform="translate(164.66 213.73) rotate(-88.89)"/>
        <ellipse class="cls-9" cx="120.16" cy="25.35" rx="3.81" ry="2.87" transform="translate(92.48 144.99) rotate(-88.89)"/>
        <ellipse class="cls-9" cx="216.55" cy="31.03" rx="6.99" ry="5.28" transform="translate(181.33 246.94) rotate(-88.89)"/>
        <ellipse class="cls-9" cx="216.55" cy="31.03" rx="3.81" ry="2.87" transform="translate(181.33 246.94) rotate(-88.89)"/>
        <ellipse class="cls-9" cx="180.05" cy="30.33" rx="6.99" ry="5.28" transform="translate(146.23 209.75) rotate(-88.89)"/>
        <ellipse class="cls-9" cx="180.05" cy="30.33" rx="3.81" ry="2.87" transform="translate(146.23 209.75) rotate(-88.89)"/>
        <ellipse class="cls-9" cx="204.39" cy="47.13" rx="6.99" ry="5.28" transform="translate(153.31 250.57) rotate(-88.89)"/>
        <ellipse class="cls-9" cx="204.39" cy="47.13" rx="3.81" ry="2.87" transform="translate(153.31 250.57) rotate(-88.89)"/>
        <ellipse class="cls-9" cx="191.9" cy="46.26" rx="3.81" ry="2.87" transform="translate(141.93 237.23) rotate(-88.89)"/>
      </g>
      <path class="cls-13" d="M125.89,131.54l85.7,1.66,1.37-70.38c-.07,0-15.59-.3-24.96-.48-4.06-.08-6.97-.14-6.97-.14-.03,0-15.41-.3-15.44-.3-.22,0-40.24-.78-40.45-.79-.16,8.06-.31,16.12-.47,24.18l-15.19,14.22,15.32,6.21,1.1,25.82h-.01Z"/>
      <ellipse class="cls-4" cx="192.83" cy="116.08" rx="13.36" ry="8.51" transform="translate(73.03 306.63) rotate(-88.89)"/>
      <ellipse class="cls-15" cx="192.83" cy="116.08" rx="9.25" ry="5.89" transform="translate(73.03 306.63) rotate(-88.89)"/>
      <ellipse class="cls-15" cx="192.83" cy="116.08" rx="5.2" ry="3.31" transform="translate(73.03 306.63) rotate(-88.89)"/>
      <path class="cls-1" d="M169.52,61.98s5.5,3.33,4.6,14.06-5.81,15.47-2.82,21.18c2.99,5.7,5.51,10.44,4.4,18.56-1.12,8.11-1.89,13.33-1.89,13.33"/>
      <polyline class="cls-3" points="181.02 62.2 178.56 89.03 183.35 106.67 183.07 121.12"/>
      <polyline class="cls-1" points="184.04 71.4 190.18 82.8 193.1 102.75"/>
      <polyline class="cls-5" points="194.82 62.47 199.72 80.3 199.09 97.76 199.2 107.06"/>
      <polyline class="cls-1" points="207.64 62.72 206.85 103.02 201.09 129.63"/>
      <polyline class="cls-6" points="165.58 61.9 163.31 97.06 186.53 129.35"/>
      <path class="cls-11" d="M295.26,256.32l-9.25-14.19c-9.25-14.19,.95-40.29,.95-40.29l-52.54-52.84-132.54-3.12-7.56,10.22-30.95,41.82-1.33,56.68,233.22,1.73h0Z"/>
      <path class="cls-11" d="M89.88,157.42s41.38,21.22,31.76,45.18-24.67,52.17-24.67,52.17"/>
      <line class="cls-19" x1="69.98" y1="188.98" x2="68.51" y2="251.52"/>
      <line class="cls-19" x1="80.42" y1="174.93" x2="78.61" y2="251.76"/>
      <line class="cls-19" x1="89.7" y1="165.48" x2="87.6" y2="254.55"/>
      <line class="cls-19" x1="99.55" y1="163.08" x2="97.5" y2="250.05"/>
      <line class="cls-19" x1="108.21" y1="170.75" x2="106.81" y2="230.38"/>
      <path class="cls-11" d="M94.18,161.81s51.06,6.93,55.71,1.31l4.65-5.61s-14.05,47.66-.34,72.69c13.7,25.02,41.69,22.18,41.69,22.18"/>
      <path class="cls-17" d="M174.38,151.88s-30.09,63.8,1.28,80.12c31.38,16.33,50.49,18.93,50.49,18.93"/>
      <path class="cls-17" d="M187.61,147.89s-27.62,44.65-2.53,62.68c25.08,18.03,70.82,43.21,70.82,43.21"/>
      <path class="cls-17" d="M198.52,152.45s-25.24,40.15,3.63,56.2,70.3,43.37,70.3,43.37"/>
      <path class="cls-17" d="M211.42,152.76s-22.53,29.57,6.81,50.15,69.67,49.48,69.67,49.48"/>
      <path class="cls-17" d="M223.18,153.03s-20.92,31.32-.67,39.54c20.26,8.22,57.35,38.66,57.35,38.66"/>
      <path class="cls-17" d="M228.45,153.16s-9.53,20.2-.68,29.01,52.41,35.91,52.41,35.91"/>
      <path class="cls-18" d="M235.37,153.32s-9,20.51,2.63,24.14,42.42,30.68,42.42,30.68"/>
      <path class="cls-6" d="M114.06,175.73s10,8.57,17.66,7,18.34-6.15,18.34-6.15"/>
      <ellipse class="cls-2" cx="129.19" cy="156.92" rx="1.21" ry="1.2" transform="translate(-30.73 282.38) rotate(-88.65)"/>
      <ellipse class="cls-2" cx="146.25" cy="155.31" rx="2.02" ry="2" transform="translate(-12.46 297.86) rotate(-88.65)"/>
      <ellipse class="cls-2" cx="114.67" cy="150.48" rx="2.02" ry="2" transform="translate(-38.48 261.58) rotate(-88.65)"/>
      <ellipse class="cls-2" cx="104.97" cy="156.35" rx="2.02" ry="2" transform="translate(-53.81 257.6) rotate(-88.65)"/>
      <path class="cls-7" d="M131.08,190.42s-7.19,2.19-4.98,4.99c2.2,2.8,6.07,3.87,6.07,3.87,0,0,4.68,1.09,5.33-2.23,.64-3.32-5.89-2.13-5.89-2.13"/>
      <path class="cls-14" d="M145.57,233.03s2.15-3.96-.08-6.71c-2.23-2.75-4.41-3.19-4.41-3.19,0,0-2.54-.29-1.32,3.63,1.23,3.92,3.54,1.24,3.54,1.24"/>
      <path class="cls-14" d="M130.98,204.73s-5.9,3.17-4.12,7.04,4.94,5.3,4.94,5.3c0,0,3.82,1.44,4.38-3.2,.55-4.65-4.81-2.88-4.81-2.88"/>
      <path class="cls-7" d="M140.77,182.94s-4.36,2.49-3.06,5.54c1.3,3.06,3.61,4.19,3.61,4.19,0,0,2.81,1.15,3.23-2.52,.43-3.66-3.52-2.28-3.52-2.28"/>
      <path class="cls-14" d="M122.6,222.07s-5.4,2.84-3.77,6.3c1.63,3.47,4.53,4.75,4.53,4.75,0,0,3.5,1.29,4.01-2.87,.5-4.16-4.4-2.58-4.4-2.58"/>
      <path class="cls-14" d="M154.13,244.04s-5.15,2.36-3.58,5.25c1.57,2.9,4.33,3.97,4.33,3.97,0,0,3.35,1.09,3.82-2.38,.47-3.47-4.21-2.16-4.21-2.16"/>
      <path class="cls-14" d="M136.13,229.93s-5.4,2.84-3.77,6.3c1.63,3.47,4.53,4.75,4.53,4.75,0,0,3.5,1.29,4.01-2.87,.5-4.16-4.4-2.58-4.4-2.58"/>
      <path class="cls-20" d="M112.46,252.38s6.61,.22,5.65-2.87c-.96-3.09-3.83-5.16-3.83-5.16,0,0-3.53-2.33-5.09,.37-1.55,2.7,4.22,3.59,4.22,3.59"/>
      <g>
        <polyline class="cls-10" points="52.33 176.28 51.9 194.26 67.07 205.67 66.73 220.32 28.45 219.41 29.04 174.55"/>
        <line class="cls-16" x1="42.81" y1="199.63" x2="43.4" y2="174.88"/>
        <line class="cls-16" x1="34.3" y1="174.67" x2="33.71" y2="199.42"/>
        <line class="cls-16" x1="38.91" y1="174.78" x2="38.32" y2="199.53"/>
        <line class="cls-16" x1="48.86" y1="175.01" x2="48.33" y2="197.4"/>
      </g>
    </g>
  </g>
</svg>